# xmcd CD database file
#
# Track frame offsets:
#	150
#	26456
#	46288
#	71699
#	94668
#	133565
#	161434
#	189985
#	213496
#	235441
#	257124
#	278092
#	311452
#
# Disc length: 4415 seconds
#
# Revision: 0
# Processed by: cddbd v1.5.2PL0 Copyright (c) Steve Scherf et al.
# Submitted via: CDex 1.51
#
DISCID=b1113d0d
DTITLE=Bob Levis - Barstool Blues
DYEAR=2008
DGENRE=Blues
TTITLE0=It Takes Time
TTITLE1=Why Are People Like That?
TTITLE2=Can't Hold Out Much Longer
TTITLE3=Mystery Train
TTITLE4=Double Trouble
TTITLE5=Barstool Breakdown
TTITLE6=I'm Coming Down With The Blues
TTITLE7=Three Times a Fool
TTITLE8=Just to Be with You
TTITLE9=Shuffle-isko
TTITLE10=Now I'm Good
TTITLE11=Blues Before Sunrise
TTITLE12=Getting Out of Town
EXTD=YEAR: 2008
EXTT0=
EXTT1=
EXTT2=
EXTT3=
EXTT4=
EXTT5=
EXTT6=
EXTT7=
EXTT8=
EXTT9=
EXTT10=
EXTT11=
EXTT12=
PLAYORDER=
